<?xml version="1.0" encoding="utf-8"?>
<!-- Generator: Adobe Illustrator 19.2.1, SVG Export Plug-In . SVG Version: 6.00 Build 0)  -->
<svg version="1.1" id="layer" xmlns="http://www.w3.org/2000/svg" xmlns:xlink="http://www.w3.org/1999/xlink" x="0px" y="0px"
	 viewBox="0 0 652 652" style="enable-background:new 0 0 652 652;" xml:space="preserve">
<style type="text/css">
	.st0{fill:#231F20;}
</style>
<g id="g10" transform="matrix(1.25,0,0,-1.25,0,98.5125)">
	<g id="g12" transform="scale(0.1,0.1)">
		<path id="path14" class="st0" d="M1492.5-2117.8l-65.2,280.8l-62.8-280.8l-141.2-0.2l-115.9,530.3l145,0l51-266.8l56.6,266.8
			l135,0l59.9-266.6l56.2,266.6H1754l-120.3-530.1L1492.5-2117.8"/>
		<path id="path16" class="st0" d="M2643.2-2118h149.9v513.7h-149.9C2643.2-1604.3,2643.2-2118,2643.2-2118z"/>
		<path id="path18" class="st0" d="M4083-2118.5h149.9v513.8H4083C4083-1604.6,4083-2118.5,4083-2118.5z"/>
		<path id="path20" class="st0" d="M3134.8-1770.1c0,69.3-31.3,83.3-81.8,83.3c-57.1,0-76.2-26.1-79.2-88.4
			c-1.4-26-0.4-29.4-0.4-29.4l161.7-0.3L3134.8-1770.1L3134.8-1770.1z M2972.9-1900.5c0-52.5,8.6-84.8,36.1-98
			c15.4-6.6,43.5-11.3,69.9-11.3c51.7,0,119.1,7.7,178.1,31v-119.7c-74.2-24.1-136.9-31.1-195.2-31.1c-82.5,0-141.9,17.5-178.3,51.4
			c-46.2,42.6-61.6,113.6-61.6,221.8c0,96.2,9.9,160.6,44,208.7c33,47,93.5,72.1,190.4,72.1c91.3,0,145.3-23,177.2-67.7
			c34.1-49.2,38.5-118,38.5-187.9l-0.6-69.9l-291.6,0.7L2972.9-1900.5"/>
		<path id="path22" class="st0" d="M2471.6-2131.2c-180.5,0-229.5,70.1-229.5,277.2c0,218,53.5,278.3,239.5,278.3
			c62-0.8,117.4-19,129.9-25.9l0-128.6c-32.1,14.2-75,29.8-127.7,30.7c-52.4,0-80.1-13.5-85.6-53c-5.6-35.1-6.7-82.2-6.7-101.9
			c0-31.8,2.2-62.5,6.7-92c6.7-39.4,34.4-59.9,86.7-59.9c36.8,0,81.3,4.4,127,18.6l-0.2-126.8
			C2561.2-2129.1,2513.9-2131.2,2471.6-2131.2"/>
		<path id="path24" class="st0" d="M2643.2-1529.9v-45.3h149.9v94.8C2719.4-1477.8,2657.4-1519.5,2643.2-1529.9"/>
		<path id="path26" class="st0" d="M4083-1531v-45.2h149.9v95.2C4158.4-1478.5,4096-1521.4,4083-1531"/>
		<path id="path28" class="st0" d="M3599.1-1582.5c-61.8,0-111.5-27.4-145.7-51.5l-14.6,43.5c-66.3-0.6-121.6-36.6-137.7-48.3
			v-479.4h148.6l-0.4,355.9c19.9,13.1,70,34.1,96.5,34.1c43.1,0,53.9-36.4,53.9-70.4l-0.2-319.7l142.1,0.1v388.9
			C3741.5-1670.1,3705.1-1582.5,3599.1-1582.5"/>
		<path id="path30" class="st0" d="M978.1-1772.9c0,69.5-31.3,83.6-81.8,83.6c-57.1,0-76.2-26.2-79.2-88.6
			c-1.4-26.1-0.4-29.5-0.4-29.5l161.7-0.3C978.4-1807.7,978.1-1772.9,978.1-1772.9z M816.1-1903.6c0-52.6,8.6-85.1,36.1-98.2
			c15.4-6.6,43.5-11.3,69.9-11.3c51.7,0,119.1,7.7,178.1,31.1v-120c-74.2-24.2-136.9-31.2-195.3-31.2c-82.5,0-142,17.5-178.3,51.5
			c-46.2,42.7-61.6,113.9-61.6,222.4c0,96.4,9.9,161,44,209.2c33,47.1,93.5,72.3,190.4,72.3c91.3,0,145.3-23,177.2-67.9
			c34.1-49.3,38.5-118.3,38.5-188.4l-0.6-70.1l-291.6,0.7L816.1-1903.6"/>
		<path id="path32" class="st0" d="M1978.6-1986.2c69.5,2.5,76.3,40.6,76.1,56.9c-0.7,46.2-45.9,61.5-128,89.3l-5.2,1.8
			c-75.3,26.3-146.5,51.2-148.4,168.5c-1.3,78.9,14.7,132.5,50.3,168.7c35.5,36,91.9,54.3,167.7,54.3c52.5,0,150-11.2,197.1-35
			c0-7,0-131.4-0.1-149.3c-39.1,19.3-116,44.7-187.2,43.2c-49.1-1.1-71.8-18.9-71.2-56.2c0.6-34.9,31.3-45.6,77.9-61.7
			c26-9,58.4-20.2,94.9-38.6c66.9-35,111-65.7,112.7-170.1c1.1-68.9-16.1-121.9-51-157.4c-38.3-38.9-99.7-58.7-182.5-58.7
			c-91.4,0-168.2,23.9-208.2,39.3c0,7.8,0,128.2,0,146.4C1827.6-1974.6,1898.1-1989,1978.6-1986.2"/>
		<path id="path34" class="st0" d="M4448.3-2130.5c-76.8,0-143.8,17.5-186.3,32.8l0,128.4c47.5-26.5,113.5-38.8,186.2-36.4
			c43.3,1.4,61.1,18.3,60.7,40.1c-0.6,33.9-40.8,44.8-114.6,67.7c-68.2,21.8-130.9,42.6-132.6,138.7
			c-1.5,87.4,23.5,182.4,194.9,182.4c50.1,0,137.2-10,176.7-29.8l-0.1-130.1c-29,14.8-104,38.9-170.3,37.6
			c-43.4-0.9-56.8-15.5-56.4-39.5c0.7-38.2,61.8-34.9,149.3-75.4c61.7-29.5,99.4-55.5,100.9-139.6
			C4658.7-2072.6,4588.5-2130.5,4448.3-2130.5"/>
		<path id="path36" class="st0" d="M3979.4-2002c-62.9-1.7-54.6,51.2-54.8,88.3c-0.2,37.1,0.2,194.4,0.2,194.4h126.5l0.1,114.8
			l-126.9-0.2l-0.3,148.3c-79.7,1.7-145.1-48-149.9-51.7v-84.1l-0.1-12.2c0,0-12.1-6.8-18.3-11.2c-6.2-4.4-9.4-6.9-9.4-6.9
			l28.3-97.6l-0.4-248.1c0-145.7,66.5-162,145.4-162c48.4,0,96.9,8.7,131.8,18.5v123.9C4030.1-1996.5,4005.3-2002,3979.4-2002"/>
		<path id="path38" class="st0" d="M4890.8-2003.9c-62.9-1.7-54.6,51.2-54.8,88.3c-0.2,37.1,0.2,194.4,0.2,194.4h126.5l0.1,114.8
			l-126.9-0.2l-0.3,148.3c-79.7,1.7-145.1-48-149.9-51.7v-84.1l-0.1-12.2c0,0-12.1-6.8-18.3-11.2c-6.2-4.4-9.4-6.9-9.4-6.9
			l28.3-97.6l-0.4-248.1c0-145.7,66.5-162,145.4-162c48.4,0,96.9,8.7,131.8,18.5v123.9C4941.6-1998.4,4916.8-2003.9,4890.8-2003.9"
			/>
		<path id="path40" class="st0" d="M486.2-1457.2l-0.2-349.5l-174.6,348.1c-76.2,1.4-139.3-44.2-148.5-51.1V-2118l151.5,0l0.1,332.1
			L488.2-2118h1.7l146,0v660.9L486.2-1457.2"/>
	</g>
</g>
</svg>
